# xmcd CD database file
#
# Track frame offsets:
#	150
#	8361
#	35654
#	55609
#	77822
#
# Disc length: 1260 seconds
#
# Revision: 2
# Processed by: cddbd v1.5.1PL2 Copyright (c) Steve Scherf et al.
# Submitted via: CDex 1.51
#
DISCID=2c04ea05
DTITLE=河井英里 - 青に捧げる
DYEAR=1997
DGENRE=JPop
TTITLE0=キストゥリナ
TTITLE1=にわか雨
TTITLE2=青に捧げる
TTITLE3=川下り
TTITLE4=Moon 〜静かの海〜
EXTD=YEAR: 1997
EXTT0=
EXTT1=
EXTT2=
EXTT3=
EXTT4=
PLAYORDER=
